<?xml version="1.0" ?><svg data-name="Layer 1" id="Layer_1" viewBox="0 0 512 512" xmlns="http://www.w3.org/2000/svg"><path d="M276.12,208.05a33.7,33.7,0,0,0-33.27,28.56H230.5a33.65,33.65,0,1,0,0,10.2h12.35a33.65,33.65,0,1,0,33.27-38.76Zm-78.88,57.11a23.46,23.46,0,1,1,23.45-23.45A23.48,23.48,0,0,1,197.24,265.16Zm78.88,0a23.46,23.46,0,1,1,23.45-23.45A23.48,23.48,0,0,1,276.12,265.16Z"/><path d="M276.55,294.89a5.11,5.11,0,0,0-7,1.68c-.39.62-9.69,15.21-32.87,15.21s-32.49-14.59-32.85-15.18a5.1,5.1,0,0,0-8.75,5.25c.49.83,12.43,20.13,41.6,20.13s41.1-19.3,41.59-20.13A5.08,5.08,0,0,0,276.55,294.89Z"/><path d="M424.53,316.07a5.1,5.1,0,0,0-2.64-4c-14.12-7.68-28.07-44.27-8.63-113.58,13.75-49,10.57-97.2-8.49-128.92C393.44,50.7,376.82,38.4,356.72,34c-49.75-10.88-74.67,21.7-80,29.71A121.38,121.38,0,0,0,115.31,178.27a122.27,122.27,0,0,0,2.11,22.64,34.5,34.5,0,0,0,14.86,62.35A104.72,104.72,0,0,0,204,357.78l-1.37,5.46a8.47,8.47,0,0,1-6.9,6.33L141,378.29a60.21,60.21,0,0,0-50.89,55.88l-2.62,40.6a5.1,5.1,0,0,0,4.76,5.42h.33a5.1,5.1,0,0,0,5.09-4.77l2.62-40.6a50.07,50.07,0,0,1,42.31-46.47l45.87-7.3v94a5.1,5.1,0,0,0,10.2,0V415.05c7.62,6.3,20.05,13.17,38,13.17s30.41-6.87,38-13.17V475.1a5.1,5.1,0,0,0,10.2,0v-94l45.87,7.3a50.09,50.09,0,0,1,42.32,46.47l2.62,40.6a5.1,5.1,0,0,0,5.08,4.77h.33a5.11,5.11,0,0,0,4.77-5.42l-2.62-40.6a60.22,60.22,0,0,0-50.89-55.88l-54.75-8.72a8.49,8.49,0,0,1-6.92-6.33l-1.36-5.46A105.05,105.05,0,0,0,328,309.23c13.55,15.56,28.88,24.33,45.63,26.1a61.31,61.31,0,0,0,6.27.33c24.21,0,42-14.5,42.79-15.17A5.12,5.12,0,0,0,424.53,316.07Zm-299-137.8A111.17,111.17,0,1,1,346.4,196.18a34.21,34.21,0,0,0-10.32-1.58H334.5c-39.4-5.66-60.09-46.24-60.3-46.65a5.1,5.1,0,0,0-8.49-1C228,192.46,140,194.58,139.21,194.6h-1.93a34.66,34.66,0,0,0-10.34,1.58A112.58,112.58,0,0,1,125.51,178.27ZM260.83,365.71a18.66,18.66,0,0,0,13.88,13.67v21.15c-3,4-14.89,17.49-38,17.49s-35-13.47-38-17.48V379.38a18.66,18.66,0,0,0,13.88-13.67l1.3-5.21a104.9,104.9,0,0,0,45.71,0ZM263,349.06a4.86,4.86,0,0,0-1.07.16,4.63,4.63,0,0,0-1.22.48,94.45,94.45,0,0,1-48.15,0,4.56,4.56,0,0,0-1.21-.48,4.48,4.48,0,0,0-1.08-.16,94.46,94.46,0,0,1-67.93-90.54,5.1,5.1,0,0,0-5.1-5.1,24.31,24.31,0,0,1,0-48.62h2c3.66-.06,86.88-2,129.43-45.93,8.07,12.88,29.46,41,64.71,45.88a5.49,5.49,0,0,0,.7.05h1.94a24.31,24.31,0,1,1,0,48.62,5.1,5.1,0,0,0-5.1,5.1A94.47,94.47,0,0,1,263,349.06Zm111.57-23.89c-15.17-1.63-29.19-10.38-41.68-26a103.71,103.71,0,0,0,8.14-35.92,34.49,34.49,0,0,0,14.86-62.35A121.44,121.44,0,0,0,286.46,67.58c6-8.42,27.29-32.53,68.07-23.61C372.08,47.81,386,58.19,396,74.83c17.64,29.36,20.41,74.57,7.41,120.91-19.72,70.3-6.72,106.69,7.34,120.57C403.66,320.58,390.23,326.84,374.61,325.17Z"/><path d="M349.81,448.11H310.94a5.1,5.1,0,0,0,0,10.2h38.87a5.1,5.1,0,1,0,0-10.2Z"/></svg>