<?xml version="1.0" ?><svg data-name="Layer 1" id="Layer_1" viewBox="0 0 512 512" xmlns="http://www.w3.org/2000/svg"><path d="M233.25,271.88a5.1,5.1,0,0,0-5.1-5.1H62.28V36.38H425.4V88.45a5.1,5.1,0,0,0,10.2,0V31.28a5.1,5.1,0,0,0-5.1-5.1H57.18a5.11,5.11,0,0,0-5.1,5.1v240.6a5.1,5.1,0,0,0,5.1,5.1h171A5.1,5.1,0,0,0,233.25,271.88Z"/><path d="M431.38,202.64a40.89,40.89,0,1,0-45.7,0,53.61,53.61,0,0,0-27.92,23.13L340.54,255,301.4,225.32a20.82,20.82,0,0,0-25.68,32.76l56.1,45.4a17.58,17.58,0,0,0,25.65-3.87l20.15-29.9V319a5.1,5.1,0,1,0,10.2,0V253a5.1,5.1,0,0,0-9.33-2.85L349,293.92a7.38,7.38,0,0,1-10.77,1.63l-56.1-45.4a10.62,10.62,0,0,1,13.1-16.7l43.7,33.18a5.1,5.1,0,0,0,7.48-1.48l20.14-34.22a43.37,43.37,0,0,1,37.24-21.3h10.87a35.08,35.08,0,0,1,35.05,35V319a5.1,5.1,0,0,0,10.2,0v-74.3A45.3,45.3,0,0,0,431.38,202.64Zm-53.53-33.9a30.69,30.69,0,1,1,30.68,30.69A30.71,30.71,0,0,1,377.85,168.74Z"/><path d="M398.89,418.38a37.6,37.6,0,1,0-42.62,0,66.26,66.26,0,0,0-39.48,36.93,66.23,66.23,0,0,0-39.48-36.93,37.6,37.6,0,1,0-42.62,0,66.29,66.29,0,0,0-39.48,36.93,66.23,66.23,0,0,0-39.48-36.93,37.61,37.61,0,1,0-42.61,0,66,66,0,0,0-44.58,62.34,5.1,5.1,0,0,0,10.2,0,55.69,55.69,0,1,1,111.37,0,5.1,5.1,0,0,0,10.2,0,55.69,55.69,0,0,1,111.38,0,5.1,5.1,0,1,0,10.2,0,55.69,55.69,0,1,1,111.37,0,5.1,5.1,0,1,0,10.2,0A66,66,0,0,0,398.89,418.38ZM107,387.43a27.41,27.41,0,1,1,27.41,27.4A27.44,27.44,0,0,1,107,387.43Zm121.58,0a27.4,27.4,0,1,1,27.4,27.4A27.43,27.43,0,0,1,228.6,387.43Zm121.58,0a27.4,27.4,0,1,1,27.4,27.4A27.43,27.43,0,0,1,350.18,387.43Z"/><path d="M304.92,132.63a24.51,24.51,0,0,0-24.49-24.49H255.08a5.1,5.1,0,0,0-5.1,5.1V190.8a5.1,5.1,0,0,0,5.1,5.1h25.35A24.49,24.49,0,0,0,295.38,152,24.47,24.47,0,0,0,304.92,132.63ZM280.43,185.7H260.18V157.12h20.25a14.29,14.29,0,1,1,0,28.58Zm0-38.78H260.18V118.34h20.25a14.29,14.29,0,1,1,0,28.58Z"/><path d="M129.26,109.51a5.11,5.11,0,0,0-4.81,3.41L97.11,190.49a5.1,5.1,0,0,0,9.63,3.39l5.88-16.71H145.9l5.89,16.71a5.11,5.11,0,0,0,4.81,3.4,5,5,0,0,0,1.69-.29,5.09,5.09,0,0,0,3.12-6.5l-27.34-77.57A5.11,5.11,0,0,0,129.26,109.51Zm-13,57.46,2.22-6.31s0,0,0,0L129.26,130l13.05,37Z"/><path d="M201.46,181.74a5.1,5.1,0,0,0,5.1-5.1v-20h20a5.1,5.1,0,0,0,0-10.2h-20v-20a5.1,5.1,0,0,0-10.2,0v20h-20a5.1,5.1,0,0,0,0,10.2h20v20A5.1,5.1,0,0,0,201.46,181.74Z"/></svg>