<?xml version="1.0" ?><svg viewBox="0 0 512 512" xmlns="http://www.w3.org/2000/svg"><title/><g data-name="/ OUTLINE" id="_OUTLINE"><path d="M425.74512,86.25488A240.05586,240.05586,0,0,0,86.25488,425.74512,240.05586,240.05586,0,0,0,425.74512,86.25488Zm-5.76758,322.40821-14.32031-14.32032-11.31446,11.31446,14.32032,14.32031A222.26853,222.26853,0,0,1,264,479.84424V456H248v23.84424a222.26853,222.26853,0,0,1-144.66309-59.8667l14.32032-14.32031-11.31446-11.31446L92.02246,408.66309A222.26853,222.26853,0,0,1,32.15576,264H56V248H32.15576a222.26853,222.26853,0,0,1,59.8667-144.66309l14.32031,14.32032,11.31446-11.31446L103.33691,92.02246A222.26853,222.26853,0,0,1,248,32.15576V56h16V32.15576a222.26853,222.26853,0,0,1,144.66309,59.8667l-14.32032,14.32031,11.31446,11.31446,14.32031-14.32032A222.26853,222.26853,0,0,1,479.84424,248H456v16h23.84424A222.26853,222.26853,0,0,1,419.97754,408.66309Z"/><path d="M328,344H312a16.01833,16.01833,0,0,0-16,16v8H216v-8a16.01833,16.01833,0,0,0-16-16H184a16.01833,16.01833,0,0,0-16,16v64a16.01833,16.01833,0,0,0,16,16h16a16.01833,16.01833,0,0,0,16-16v-8h80v8a16.01833,16.01833,0,0,0,16,16h16a16.01833,16.01833,0,0,0,16-16V360A16.01833,16.01833,0,0,0,328,344ZM200,424H184V360h16l.00977,64Zm96-24H216V384h80Zm32,24H312V360h16l.00977,64Z"/><path d="M415.00513,232.78174a40.00454,40.00454,0,1,0-78.002-.00171A31.99682,31.99682,0,0,0,344,296h16V280H344a16,16,0,0,1,0-32v-.04761a39.95252,39.95252,0,0,0,11.99414,10.69116l8.01172-13.8496a24.01143,24.01143,0,1,1,33.97949-11.18018A32.05113,32.05113,0,0,0,376,264h16a16,16,0,1,1,16,16H392v16h16a31.9969,31.9969,0,0,0,7.00513-63.21826Z"/><polygon points="346.343 322.343 357.657 333.657 368 323.314 368 360 384 360 384 323.314 394.343 333.657 405.657 322.343 376 292.687 346.343 322.343"/><path d="M200,273.37305V200a24.0275,24.0275,0,0,0-24-24H96a24.0275,24.0275,0,0,0-24,24V312a24.0275,24.0275,0,0,0,24,24h41.37305a23.84338,23.84338,0,0,0,16.9707-7.0293l38.62695-38.627A23.84338,23.84338,0,0,0,200,273.37305Zm-48,35.3125V296a8.00917,8.00917,0,0,1,8-8h12.68555ZM184,272H160a24.0275,24.0275,0,0,0-24,24v24H96a8.00917,8.00917,0,0,1-8-8V200a8.00917,8.00917,0,0,1,8-8h80a8.00917,8.00917,0,0,1,8,8Z"/><rect height="16" width="64" x="104" y="208"/><rect height="16" width="64" x="104" y="240"/><rect height="16" width="16" x="104" y="280"/><path d="M216,140.26758a36.26369,36.26369,0,0,0,19.36353-5.5896l9.322,9.322-34.34278,34.34277,11.31446,11.31446L256,155.31445l34.34277,34.34278,11.31446-11.31446L267.31445,144l8-8H294.627a30.42877,30.42877,0,0,0,21.65723-8.96973l9.37305-9.373a30.62795,30.62795,0,1,0-43.31446-43.31446l-9.373,9.373A30.42877,30.42877,0,0,0,264,105.37305v19.3125l-8,8-9.322-9.322a36.342,36.342,0,0,0-5.02075-45.02076l-12-12L218.34277,77.65723l12,12A20.28255,20.28255,0,0,1,234.8374,111.523L209.65723,86.34277,198.34277,97.65723,223.523,122.8374a20.28255,20.28255,0,0,1-21.86572-4.49463l-12-12-11.31446,11.31446,12,12A36.17418,36.17418,0,0,0,216,140.26758Zm64-34.89453a14.529,14.529,0,0,1,4.28418-10.34278l9.37305-9.373a14.62689,14.62689,0,0,1,20.68554,20.68554l-9.373,9.373A14.529,14.529,0,0,1,294.627,120H280Z"/><path d="M264,225.0127V216H248v9.0127a31.806,31.806,0,0,0-8.24121,3.43164l-10.10156-10.10157-11.31446,11.31446,10.10157,10.10156A31.806,31.806,0,0,0,225.0127,248H216v16h9.0127a31.806,31.806,0,0,0,3.43164,8.24121l-10.10157,10.10156,11.31446,11.31446,10.10156-10.10157A31.806,31.806,0,0,0,248,286.9873V352h16V286.9873a31.806,31.806,0,0,0,8.24121-3.43164l10.10156,10.10157,11.31446-11.31446-10.10157-10.10156A31.806,31.806,0,0,0,286.9873,264H296V248h-9.0127a31.806,31.806,0,0,0-3.43164-8.24121L389.65723,133.65723l-11.31446-11.31446L272.24121,228.44434A31.806,31.806,0,0,0,264,225.0127ZM256,272a16,16,0,1,1,16-16A16.01833,16.01833,0,0,1,256,272Z"/></g></svg>