<svg xmlns="http://www.w3.org/2000/svg" width="31" height="22" viewBox="0 0 31 22" fill="none"><path d="M24.8596 7.58503C25.3769 4.65399 26.2389 2.41261 27.101 1.20571C27.4458 0.688462 26.7562 0.17122 26.2389 0.343634C20.2044 3.79192 17.6182 8.96435 17.2734 13.1023C16.9286 16.723 19.3424 20.3437 23.1355 21.0333C26.7562 21.723 30.3769 19.3092 30.8941 15.6885C31.5838 11.723 28.8252 8.10228 24.8596 7.58503Z" fill="#ffffff"></path><path d="M8.48024 7.58503C8.99749 4.65399 9.85954 2.41261 10.7216 1.20571C11.0664 0.688462 10.3768 0.17122 9.85954 0.343634C3.82504 3.79192 1.23883 8.96435 0.894001 13.1023C0.549172 16.723 2.96299 20.3437 6.7561 21.0333C10.5492 21.723 13.9975 19.3092 14.5147 15.6885C15.2044 11.723 12.4458 8.10228 8.48024 7.58503Z" fill="#ffffff"></path></svg>