<svg width="1912" height="516" viewBox="0 0 1912 516" fill="none" xmlns="http://www.w3.org/2000/svg">
<path fill-rule="evenodd" clip-rule="evenodd" d="M411.753 433.368C388.174 433.368 371.246 438.262 353.104 448.754C351.437 449.717 349.746 450.652 347.965 451.675C332.435 460.593 319.433 472.566 305.393 483.084C302.09 485.556 299.092 487.512 295.416 489.955C281.483 499.215 266.785 506.426 250.471 510.958C231.387 516.261 211.725 516.132 192.124 511.168C161.411 503.39 141.503 487.412 118.437 469.096C94.4713 450.064 67.7228 433.368 33.9858 433.368C18.5843 433.368 4.85512 437.537 -8 443.969V8.66515C40.7004 -9.16545 86.4362 3.89643 131.753 37.8083C135.04 40.2674 137.773 42.1992 140.912 44.7642C165.444 64.8009 187.448 81.8816 223.236 81.8816C249.099 81.8816 274.559 65.7956 292.419 51.407L306.291 40.3769C332.576 18.5981 373.412 0 408.086 0C445.81 0 473.916 15.7953 502.566 35.2374C518.984 46.3793 543.672 71.2364 568.695 79.7132C581.016 83.0058 593.913 83.3213 607.374 79.3142C620.136 75.0893 656.582 49.6295 668.804 40.5229C679.482 32.5664 684.399 29.1762 695.948 22.2497C755.362 -13.3868 809.884 -2.55093 863.818 37.8083C867.105 40.2674 869.838 42.1992 872.977 44.7642C897.508 64.8009 919.513 81.8816 955.3 81.8816C981.164 81.8816 1006.62 65.7956 1024.48 51.407L1038.36 40.3769C1064.64 18.5981 1105.48 0 1140.15 0C1177.88 0 1205.98 15.7953 1234.63 35.2374C1249.6 45.3964 1271.45 66.961 1294.15 77.1117C1334.4 92.2713 1371.04 63.8356 1402.34 40.5229C1413.01 32.5664 1417.93 29.1762 1429.48 22.2497C1488.89 -13.3868 1543.42 -2.55093 1597.35 37.8083C1600.64 40.2674 1603.37 42.1992 1606.51 44.7642C1631.04 64.8009 1653.04 81.8816 1688.83 81.8816C1714.7 81.8816 1740.16 65.7956 1758.02 51.407L1771.89 40.3769C1798.17 18.5981 1839.01 0 1873.68 0C1887.59 0 1900.19 2.15069 1912 5.83641V441.064C1900.58 436.436 1888.63 433.368 1877.35 433.368C1853.77 433.368 1836.84 438.262 1818.7 448.754C1817.03 449.717 1815.34 450.652 1813.56 451.675C1798.03 460.593 1785.03 472.566 1770.99 483.084C1767.69 485.556 1764.69 487.512 1761.01 489.955C1747.08 499.215 1732.38 506.426 1716.07 510.958C1696.99 516.261 1677.32 516.132 1657.72 511.168C1627.01 503.39 1607.1 487.412 1584.03 469.096C1560.07 450.064 1533.32 433.368 1499.58 433.368C1440 433.368 1405.41 495.663 1349.8 510.719L1349.03 510.924C1328.75 517.865 1309.44 516.796 1290.97 510.625C1283.86 508.4 1276.64 505.378 1269.01 501.607C1238.82 486.699 1235.44 476.429 1213.81 460.84C1195.28 447.474 1168.02 433.368 1143.82 433.368C1120.24 433.368 1103.31 438.262 1085.17 448.754C1083.5 449.717 1081.81 450.652 1080.03 451.675C1064.5 460.593 1051.5 472.566 1037.46 483.084C1034.16 485.556 1031.16 487.512 1027.48 489.955C1013.55 499.215 998.85 506.426 982.536 510.958C963.452 516.261 943.79 516.132 924.189 511.168C893.476 503.39 873.568 487.412 850.502 469.096C826.536 450.064 799.788 433.368 766.05 433.368C708.903 433.368 674.748 490.665 622.982 508.636C605.046 516.128 587.853 517.248 571.331 513.95C525.731 506.519 513.509 483.741 481.75 460.84C463.213 447.474 435.952 433.368 411.753 433.368Z" fill="#FFF6D1"/>
</svg>
