<svg width="267" height="208" viewBox="0 0 267 208" fill="none" xmlns="http://www.w3.org/2000/svg">
<path d="M290.166 159.667C288.637 171.331 286.952 183.429 280.531 193.29C274.11 203.151 261.478 210.012 250.416 206.004C237.418 201.28 233.201 185.285 231.421 171.582C229.642 157.878 227.14 142 215.129 135.168C196.052 124.312 173.099 146.039 151.408 142.679C134.194 140.013 123.606 122.762 116.395 106.901C109.183 91.0408 101.438 73.1968 85.3529 66.4876C70.8368 60.4376 54.2311 65.6084 38.5773 64.1612C25.9178 63.0142 13.3184 57.0011 6.18422 46.4918C-0.949934 35.9825 -1.5023 20.7666 6.50443 10.8967C16.9254 -1.94225 37.4882 -1.74036 51.8742 6.40874C66.2602 14.5578 76.1685 28.5454 86.486 41.4585C96.8034 54.3715 108.927 67.2246 124.925 71.3834C138.319 74.8695 152.397 71.7355 166.177 70.4417C179.956 69.1479 195.397 70.3544 205.083 80.2303C213.75 89.0681 215.447 102.343 219.858 113.903C229.865 140.108 264.047 123.176 285.852 140.812C289.614 143.843 290.166 159.667 290.166 159.667Z" fill="#FDDC4E"/>
</svg>
