<svg width="560" height="692" viewBox="0 0 560 692" fill="none" xmlns="http://www.w3.org/2000/svg">
<path d="M239.065 26.1791C250.85 0.644621 282.907 -7.94504 305.88 8.27625L444.04 105.831C450.156 110.15 457.253 112.874 464.688 113.757L632.638 133.707C660.564 137.024 678.639 164.858 670.311 191.719L620.224 353.263C618.007 360.414 617.609 368.006 619.067 375.35L651.993 541.244C657.468 568.828 636.582 594.62 608.462 595L439.347 597.285C431.861 597.386 424.518 599.353 417.984 603.009L270.384 685.588C245.841 699.319 214.857 687.426 205.806 660.799L151.374 500.667C148.965 493.579 144.824 487.203 139.328 482.118L15.1803 367.261C-5.46285 348.162 -3.72596 315.02 18.8004 298.184L154.274 196.932C160.272 192.45 165.056 186.542 168.193 179.744L239.065 26.1791Z" fill="#E2EAFB"/>
</svg>
