<svg width="30" height="30" viewBox="0 0 46 47" fill="none" xmlns="http://www.w3.org/2000/svg">
<path d="M2.00006 11.36L15.9101 11.99L24.3301 0.889998C24.5451 0.604208 24.8361 0.384541 25.1699 0.25601C25.5036 0.12748 25.8668 0.0952481 26.218 0.162985C26.5692 0.230722 26.8943 0.395712 27.1563 0.639158C27.4183 0.882605 27.6067 1.19473 27.7001 1.54L31.4001 15L44.5601 19.57C44.9026 19.6843 45.2059 19.8929 45.4352 20.1719C45.6645 20.4508 45.8106 20.7887 45.8565 21.1469C45.9025 21.5051 45.8465 21.8689 45.695 22.1967C45.5435 22.5245 45.3026 22.8029 45.0001 23L33.3701 30.67L33.0801 44.6C33.0605 44.9479 32.9461 45.2839 32.7492 45.5714C32.5524 45.859 32.2807 46.0872 31.9634 46.2314C31.6462 46.3756 31.2956 46.4303 30.9495 46.3895C30.6034 46.3487 30.2751 46.214 30.0001 46L19.1201 37.31L5.79006 41.31C5.44848 41.4154 5.08419 41.4228 4.73859 41.3315C4.393 41.2401 4.07999 41.0536 3.83516 40.7931C3.59032 40.5326 3.42349 40.2087 3.35365 39.8581C3.2838 39.5075 3.31374 39.1444 3.44006 38.81L8.35006 25.81L0.350058 14.37C0.143624 14.0778 0.0234011 13.7335 0.00308334 13.3763C-0.0172344 13.0192 0.06317 12.6635 0.235138 12.3498C0.407105 12.036 0.663722 11.7769 0.975758 11.6019C1.28779 11.427 1.6427 11.3431 2.00006 11.36Z" fill="#FFCD7B"/>
</svg>
