<svg width="45" height="46" viewBox="0 0 45 46" fill="none" xmlns="http://www.w3.org/2000/svg">
<path d="M13.47 44.12L12.65 30.43L0.91001 23.34C0.615224 23.1566 0.376966 22.8952 0.221643 22.5847C0.0663197 22.2743 -2.42144e-06 21.9268 0.0300272 21.581C0.0600569 21.2351 0.185266 20.9043 0.391776 20.6253C0.598286 20.3462 0.878033 20.1298 1.20001 20L14 15L17.12 1.63997C17.2016 1.29899 17.3765 0.98744 17.625 0.740147C17.8736 0.492853 18.186 0.319572 18.5274 0.239674C18.8688 0.159775 19.2257 0.176404 19.5581 0.287716C19.8906 0.399028 20.1856 0.600633 20.41 0.869976L29.12 11.47L42.78 10.3C43.1307 10.2683 43.4832 10.3357 43.7975 10.4946C44.1117 10.6534 44.375 10.8974 44.5574 11.1986C44.7398 11.4997 44.8339 11.8461 44.8291 12.1982C44.8242 12.5503 44.7206 12.8939 44.53 13.19L37.1 24.72L42.44 37.35C42.5764 37.675 42.6191 38.0316 42.5635 38.3796C42.5078 38.7277 42.356 39.0532 42.1251 39.3194C41.8942 39.5857 41.5934 39.7821 41.2568 39.8865C40.9201 39.9908 40.561 39.999 40.22 39.91L27 36.46L16.63 45.46C16.3643 45.7071 16.0327 45.8721 15.6752 45.9349C15.3178 45.9978 14.9498 45.9558 14.6157 45.8142C14.2816 45.6725 13.9956 45.4371 13.7923 45.1365C13.589 44.8359 13.4771 44.4828 13.47 44.12Z" fill="#FF7556"/>
</svg>
